<mxfile host="app.diagrams.net" modified="2023-07-16T15:52:31.885Z" agent="Mozilla/5.0 (Macintosh; Intel Mac OS X 10_15_7) AppleWebKit/537.36 (KHTML, like Gecko) Chrome/114.0.0.0 Safari/537.36" etag="4MTBRyhrQxfEuR2y3QQh" version="21.6.2" type="github">
  <diagram name="第 1 页" id="P3Wh1JFPypXvYExJ6E7p">
    <mxGraphModel dx="1434" dy="828" grid="1" gridSize="10" guides="1" tooltips="1" connect="1" arrows="1" fold="1" page="1" pageScale="1" pageWidth="827" pageHeight="1169" math="0" shadow="0">
      <root>
        <mxCell id="0" />
        <mxCell id="1" parent="0" />
        <mxCell id="bauWL3_r8_5GMGgz_0n7-9" value="" style="rounded=1;whiteSpace=wrap;html=1;dashed=1;dashPattern=8 8;fillColor=#f5f5f5;fontColor=#333333;strokeColor=#666666;" vertex="1" parent="1">
          <mxGeometry x="160" y="280" width="1010" height="400" as="geometry" />
        </mxCell>
        <mxCell id="bauWL3_r8_5GMGgz_0n7-2" value="&lt;b style=&quot;font-size: 22px;&quot;&gt;功能&lt;br&gt;F&lt;/b&gt;&lt;span style=&quot;font-size: 22px;&quot;&gt;eature&lt;br&gt;&lt;/span&gt;&lt;br&gt;&lt;div style=&quot;text-align: justify; font-size: 14px;&quot;&gt;&lt;font style=&quot;font-size: 14px;&quot;&gt;&lt;span style=&quot;background-color: initial;&quot;&gt;1.&lt;/span&gt;&lt;span style=&quot;background-color: initial;&quot;&gt;功能完整性&lt;/span&gt;&lt;/font&gt;&lt;/div&gt;&lt;div style=&quot;text-align: justify; font-size: 14px;&quot;&gt;&lt;span style=&quot;background-color: initial;&quot;&gt;&lt;font style=&quot;font-size: 14px;&quot;&gt;2. 逻辑正确性&lt;/font&gt;&lt;/span&gt;&lt;/div&gt;&lt;div style=&quot;text-align: justify; font-size: 14px;&quot;&gt;&lt;span style=&quot;background-color: initial;&quot;&gt;&lt;font style=&quot;font-size: 14px;&quot;&gt;3. 交付及时性&lt;/font&gt;&lt;/span&gt;&lt;/div&gt;" style="rounded=0;whiteSpace=wrap;html=1;fillColor=#dae8fc;strokeColor=#6c8ebf;" vertex="1" parent="1">
          <mxGeometry x="200" y="320" width="160" height="160" as="geometry" />
        </mxCell>
        <mxCell id="bauWL3_r8_5GMGgz_0n7-3" value="&lt;b style=&quot;border-color: var(--border-color); font-size: 22px;&quot;&gt;质量&lt;br style=&quot;border-color: var(--border-color);&quot;&gt;&lt;/b&gt;&lt;span style=&quot;font-size: 22px;&quot;&gt;&lt;b&gt;Q&lt;/b&gt;uality&lt;/span&gt;&lt;br style=&quot;border-color: var(--border-color);&quot;&gt;&lt;br style=&quot;border-color: var(--border-color);&quot;&gt;&lt;div style=&quot;text-align: justify; border-color: var(--border-color); font-size: 14px;&quot;&gt;&lt;font style=&quot;border-color: var(--border-color);&quot;&gt;&lt;span style=&quot;border-color: var(--border-color); background-color: initial;&quot;&gt;1.线下 Bug&lt;/span&gt;&lt;/font&gt;&lt;/div&gt;&lt;div style=&quot;text-align: justify; border-color: var(--border-color); font-size: 14px;&quot;&gt;&lt;span style=&quot;border-color: var(--border-color); background-color: initial;&quot;&gt;2. 线上故障&lt;/span&gt;&lt;/div&gt;&lt;div style=&quot;text-align: justify; border-color: var(--border-color); font-size: 14px;&quot;&gt;&lt;span style=&quot;border-color: var(--border-color); background-color: initial;&quot;&gt;3.系统稳定性&lt;/span&gt;&lt;/div&gt;" style="rounded=0;whiteSpace=wrap;html=1;fillColor=#dae8fc;strokeColor=#6c8ebf;" vertex="1" parent="1">
          <mxGeometry x="400" y="320" width="160" height="160" as="geometry" />
        </mxCell>
        <mxCell id="bauWL3_r8_5GMGgz_0n7-4" value="&lt;b style=&quot;border-color: var(--border-color); font-size: 22px;&quot;&gt;性能&lt;br style=&quot;border-color: var(--border-color);&quot;&gt;&lt;/b&gt;&lt;font style=&quot;&quot;&gt;&lt;b style=&quot;font-size: 22px;&quot;&gt;P&lt;/b&gt;&lt;font style=&quot;font-size: 18px;&quot;&gt;erformance&lt;/font&gt;&lt;/font&gt;&lt;br style=&quot;border-color: var(--border-color);&quot;&gt;&lt;br style=&quot;border-color: var(--border-color);&quot;&gt;&lt;div style=&quot;text-align: justify; border-color: var(--border-color); font-size: 14px;&quot;&gt;&lt;font style=&quot;border-color: var(--border-color);&quot;&gt;1. 接口速度&lt;/font&gt;&lt;/div&gt;&lt;div style=&quot;text-align: justify; border-color: var(--border-color); font-size: 14px;&quot;&gt;&lt;span style=&quot;border-color: var(--border-color); background-color: initial;&quot;&gt;2. 系统容量&lt;/span&gt;&lt;/div&gt;&lt;div style=&quot;text-align: justify; border-color: var(--border-color); font-size: 14px;&quot;&gt;&lt;span style=&quot;border-color: var(--border-color); background-color: initial;&quot;&gt;3.用户体验&lt;/span&gt;&lt;/div&gt;" style="rounded=0;whiteSpace=wrap;html=1;fillColor=#dae8fc;strokeColor=#6c8ebf;" vertex="1" parent="1">
          <mxGeometry x="600" y="320" width="160" height="160" as="geometry" />
        </mxCell>
        <mxCell id="bauWL3_r8_5GMGgz_0n7-5" value="&lt;b style=&quot;border-color: var(--border-color); font-size: 22px;&quot;&gt;安全&lt;br style=&quot;border-color: var(--border-color);&quot;&gt;&lt;/b&gt;&lt;font style=&quot;font-size: 22px;&quot;&gt;&lt;b&gt;S&lt;/b&gt;ecurity&lt;/font&gt;&lt;br style=&quot;border-color: var(--border-color);&quot;&gt;&lt;br style=&quot;border-color: var(--border-color);&quot;&gt;&lt;div style=&quot;text-align: justify; border-color: var(--border-color); font-size: 14px;&quot;&gt;&lt;font style=&quot;border-color: var(--border-color);&quot;&gt;1.数据安全&lt;/font&gt;&lt;/div&gt;&lt;div style=&quot;text-align: justify; border-color: var(--border-color); font-size: 14px;&quot;&gt;&lt;span style=&quot;border-color: var(--border-color); background-color: initial;&quot;&gt;2. 权限控制&lt;/span&gt;&lt;/div&gt;&lt;div style=&quot;text-align: justify; border-color: var(--border-color); font-size: 14px;&quot;&gt;&lt;span style=&quot;border-color: var(--border-color); background-color: initial;&quot;&gt;3.业务安全&lt;/span&gt;&lt;/div&gt;" style="rounded=0;whiteSpace=wrap;html=1;fillColor=#dae8fc;strokeColor=#6c8ebf;" vertex="1" parent="1">
          <mxGeometry x="800" y="320" width="160" height="160" as="geometry" />
        </mxCell>
        <mxCell id="bauWL3_r8_5GMGgz_0n7-6" value="&lt;b style=&quot;border-color: var(--border-color); font-size: 22px;&quot;&gt;架构&lt;br style=&quot;border-color: var(--border-color);&quot;&gt;&lt;/b&gt;&lt;font style=&quot;font-size: 22px;&quot;&gt;&lt;b&gt;A&lt;/b&gt;rchitecture&lt;/font&gt;&lt;br style=&quot;border-color: var(--border-color);&quot;&gt;&lt;br style=&quot;border-color: var(--border-color);&quot;&gt;&lt;div style=&quot;text-align: justify; border-color: var(--border-color); font-size: 14px;&quot;&gt;&lt;font style=&quot;border-color: var(--border-color);&quot;&gt;1.简单易懂&lt;/font&gt;&lt;/div&gt;&lt;div style=&quot;text-align: justify; border-color: var(--border-color); font-size: 14px;&quot;&gt;2. 可扩展易演进&lt;/div&gt;&lt;div style=&quot;text-align: justify; border-color: var(--border-color); font-size: 14px;&quot;&gt;&lt;span style=&quot;border-color: var(--border-color); background-color: initial;&quot;&gt;3.可观测易维护&lt;/span&gt;&lt;/div&gt;" style="rounded=0;whiteSpace=wrap;html=1;fillColor=#f8cecc;strokeColor=#b85450;" vertex="1" parent="1">
          <mxGeometry x="200" y="520" width="760" height="120" as="geometry" />
        </mxCell>
        <mxCell id="bauWL3_r8_5GMGgz_0n7-7" value="&lt;b style=&quot;border-color: var(--border-color); font-size: 22px;&quot;&gt;效率&lt;br style=&quot;border-color: var(--border-color);&quot;&gt;&lt;/b&gt;&lt;span style=&quot;font-size: 22px;&quot;&gt;&lt;b&gt;E&lt;/b&gt;fficiency&lt;/span&gt;&lt;br style=&quot;border-color: var(--border-color);&quot;&gt;&lt;br style=&quot;border-color: var(--border-color);&quot;&gt;&lt;div style=&quot;text-align: justify; border-color: var(--border-color); font-size: 14px;&quot;&gt;&lt;font style=&quot;border-color: var(--border-color);&quot;&gt;1.人力成本&lt;/font&gt;&lt;/div&gt;&lt;div style=&quot;text-align: justify; border-color: var(--border-color); font-size: 14px;&quot;&gt;2. 服务器成本&lt;/div&gt;&lt;div style=&quot;text-align: justify; border-color: var(--border-color); font-size: 14px;&quot;&gt;&lt;span style=&quot;border-color: var(--border-color); background-color: initial;&quot;&gt;3.迭代效率&lt;/span&gt;&lt;/div&gt;" style="rounded=0;whiteSpace=wrap;html=1;fillColor=#d5e8d4;strokeColor=#82b366;" vertex="1" parent="1">
          <mxGeometry x="1000" y="320" width="120" height="320" as="geometry" />
        </mxCell>
        <mxCell id="bauWL3_r8_5GMGgz_0n7-10" value="&lt;font style=&quot;font-size: 22px;&quot;&gt;&lt;b style=&quot;border-color: var(--border-color);&quot;&gt;行业对标&lt;/b&gt;&lt;b&gt;(&lt;/b&gt;&lt;b style=&quot;border-color: var(--border-color);&quot;&gt;B&lt;/b&gt;&lt;span style=&quot;border-color: var(--border-color);&quot;&gt;enchmark&lt;/span&gt;&lt;b&gt;)&lt;/b&gt;&lt;/font&gt;" style="text;html=1;strokeColor=none;fillColor=none;align=center;verticalAlign=middle;whiteSpace=wrap;rounded=0;" vertex="1" parent="1">
          <mxGeometry x="414" y="260" width="316" height="40" as="geometry" />
        </mxCell>
        <mxCell id="bauWL3_r8_5GMGgz_0n7-11" value="&lt;div style=&quot;text-align: left; font-size: 16px;&quot;&gt;&lt;span style=&quot;background-color: initial;&quot;&gt;&lt;font style=&quot;font-size: 16px;&quot;&gt;1. 竞对怎么做&lt;/font&gt;&lt;/span&gt;&lt;/div&gt;&lt;div style=&quot;text-align: left; font-size: 16px;&quot;&gt;&lt;span style=&quot;background-color: initial;&quot;&gt;&lt;font style=&quot;font-size: 16px;&quot;&gt;2. 优劣分析对比&lt;/font&gt;&lt;/span&gt;&lt;/div&gt;&lt;div style=&quot;text-align: left; font-size: 16px;&quot;&gt;&lt;span style=&quot;background-color: initial;&quot;&gt;&lt;font style=&quot;font-size: 16px;&quot;&gt;3. 差距改进落地&lt;/font&gt;&lt;/span&gt;&lt;/div&gt;" style="text;html=1;strokeColor=none;fillColor=none;align=center;verticalAlign=middle;whiteSpace=wrap;rounded=0;" vertex="1" parent="1">
          <mxGeometry x="680" y="240" width="180" height="80" as="geometry" />
        </mxCell>
      </root>
    </mxGraphModel>
  </diagram>
</mxfile>
